<?xml version="1.0" encoding="utf-8"?>
<!-- Generator: Adobe Illustrator 17.0.0, SVG Export Plug-In . SVG Version: 6.00 Build 0)  -->
<!DOCTYPE svg PUBLIC "-//W3C//DTD SVG 1.1//EN" "http://www.w3.org/Graphics/SVG/1.1/DTD/svg11.dtd">
<svg version="1.1" id="Layer_1" xmlns="http://www.w3.org/2000/svg" xmlns:xlink="http://www.w3.org/1999/xlink" x="0px" y="0px"
	 width="178.684px" height="177.685px" viewBox="0 0 178.684 177.685" enable-background="new 0 0 178.684 177.685"
	 xml:space="preserve">
<g>
	<path d="M45.177,12.017c4.431,5.401,11.714,9.096,18.861,9.196C76.616,21.39,87.68,12.101,89.536,0l0.014,0.012
		C90.703,7,95.119,13.686,101.309,17.377c10.804,6.443,25.058,3.929,32.717-5.623l0.009,0.009
		c-2.496,6.628-2.047,14.637,1.468,20.928c6.136,10.982,19.714,15.974,31.123,11.532l0.003-0.004
		c-5.476,4.492-9.068,11.627-9.17,18.833c-0.177,12.578,9.112,23.642,21.213,25.499l0.012-0.016
		c-6.988,1.152-13.701,5.597-17.392,11.787c-6.442,10.804-3.902,25.03,5.649,32.688l-0.009,0.009
		c-6.628-2.496-14.664-2.019-20.955,1.497c-10.981,6.136-15.916,19.796-11.473,31.204l0.032,0.002
		c-4.548-5.543-11.808-9.15-18.919-9.25c-12.578-0.177-23.642,9.112-25.499,21.213l0.016,0.012
		c-1.152-6.988-5.597-13.701-11.787-17.391c-10.804-6.442-25.004-3.958-32.662,5.593l-0.01-0.037
		c2.496-6.628,1.994-14.579-1.521-20.871c-6.136-10.981-19.685-15.919-31.093-11.477l0.024-0.025
		c5.476-4.492,9.039-11.681,9.14-18.887c0.177-12.578-9.112-23.642-21.213-25.498L1,89.12c6.988-1.153,13.7-5.597,17.391-11.787
		c6.442-10.804,3.93-25.03-5.622-32.689l0.037-0.01c6.628,2.496,14.608,2.02,20.899-1.495c10.981-6.136,15.918-19.712,11.476-31.12
		L45.177,12.017z"/>
</g>
</svg>
